<svg width="112" height="29" viewBox="0 0 112 29" fill="none" xmlns="http://www.w3.org/2000/svg">
<path d="M23.6834 7.04963C24.3862 6.64386 24.6087 5.72507 24.0881 5.10254C22.1525 2.78812 19.4092 1.17241 16.2916 0.688841C15.499 0.565896 14.8296 1.21497 14.8296 2.01708V9.71344C14.8296 10.8014 16.0074 11.4814 16.9496 10.9374L23.6834 7.04963Z" fill="#936BFF"/>
<path d="M22.7051 21.2814C23.3993 21.6822 24.2955 21.4278 24.585 20.6803C25.1369 19.2557 25.4395 17.7069 25.4395 16.0874C25.4395 14.5551 25.1686 13.0862 24.672 11.7258C24.3938 10.9636 23.4869 10.6972 22.7843 11.1029L16.0498 14.991C15.1076 15.535 15.1076 16.895 16.0498 17.4389L22.7051 21.2814Z" fill="#2D2D62"/>
<path d="M13.2232 27.3292C13.2232 28.1313 13.8925 28.7803 14.6852 28.6574C17.7174 28.1871 20.3955 26.6458 22.3208 24.4322C22.8598 23.8126 22.6426 22.8784 21.9313 22.4678L15.3431 18.6641C14.4009 18.1201 13.2232 18.8001 13.2232 19.8881L13.2232 27.3292Z" fill="#2D2D62"/>
<path d="M3.37414 22.3105C2.67065 22.7167 2.4486 23.6367 2.9707 24.259C4.81221 26.454 7.3813 28.018 10.3068 28.5798C11.1118 28.7344 11.8098 28.0793 11.8098 27.2596L11.8098 19.8881C11.8098 18.8001 10.6321 18.1201 9.68988 18.6641L3.37414 22.3105Z" fill="#2D2D62"/>
<path d="M2.5858 11.2962C1.87537 10.8861 0.958598 11.1638 0.691275 11.9393C0.243271 13.2391 0 14.6342 0 16.0861C0 17.6254 0.273421 19.1008 0.774345 20.4665C1.05348 21.2274 1.9595 21.4929 2.66147 21.0876L8.98326 17.4377C9.92546 16.8937 9.92546 15.5338 8.98326 14.9898L2.5858 11.2962Z" fill="#2D2D62"/>
<path d="M2.81369 8.10661C2.30981 8.73135 2.53686 9.63611 3.23195 10.0374L9.6899 13.7659C10.6321 14.3099 11.8099 13.6299 11.8099 12.5419V4.91519C11.8099 4.0954 11.1118 3.4404 10.3067 3.595C7.29717 4.17294 4.66478 5.81152 2.81369 8.10661Z" fill="#2D2D62"/>
<path d="M36.5995 20.1209C36.9995 20.4889 37.4795 20.7769 38.0395 20.9849C38.6155 21.1769 39.1995 21.2729 39.7915 21.2729C40.2075 21.2729 40.5595 21.1849 40.8475 21.0089C41.1355 20.8169 41.2795 20.5769 41.2795 20.2889C41.2795 20.0009 41.1355 19.7689 40.8475 19.5929C40.5755 19.4009 40.2315 19.2329 39.8155 19.0889C39.3995 18.9289 38.9435 18.7689 38.4475 18.6089C37.9675 18.4329 37.5195 18.2169 37.1035 17.9609C36.6875 17.6889 36.3355 17.3529 36.0475 16.9529C35.7755 16.5529 35.6395 16.0409 35.6395 15.4169C35.6395 14.8569 35.7595 14.3529 35.9995 13.9049C36.2555 13.4569 36.5915 13.0809 37.0075 12.7769C37.4235 12.4569 37.8955 12.2169 38.4235 12.0569C38.9675 11.8809 39.5275 11.7929 40.1035 11.7929C40.4875 11.7929 40.8715 11.8249 41.2555 11.8889C41.6395 11.9529 41.9995 12.0409 42.3355 12.1529C42.6875 12.2649 43.0075 12.3929 43.2955 12.5369C43.5995 12.6809 43.8475 12.8249 44.0395 12.9689L42.5755 15.2249C42.2715 15.0009 41.9275 14.8169 41.5435 14.6729C41.1595 14.5129 40.7595 14.4329 40.3435 14.4329C39.9115 14.4329 39.5355 14.5129 39.2155 14.6729C38.9115 14.8329 38.7595 15.0649 38.7595 15.3689C38.7595 15.6249 38.8955 15.8329 39.1675 15.9929C39.4555 16.1369 39.8075 16.2809 40.2235 16.4249C40.6395 16.5689 41.0875 16.7289 41.5675 16.9049C42.0635 17.0649 42.5195 17.2889 42.9355 17.5769C43.3515 17.8649 43.6955 18.2249 43.9675 18.6569C44.2555 19.0889 44.3995 19.6409 44.3995 20.3129C44.3995 20.8729 44.2715 21.3769 44.0155 21.8249C43.7595 22.2569 43.4155 22.6329 42.9835 22.9529C42.5675 23.2569 42.0795 23.4969 41.5195 23.6729C40.9595 23.8329 40.3755 23.9129 39.7675 23.9129C38.9515 23.9129 38.1355 23.7849 37.3195 23.5289C36.5195 23.2569 35.7755 22.8649 35.0875 22.3529L36.5995 20.1209ZM45.5986 17.8649C45.5986 17.0329 45.7506 16.2489 46.0546 15.5129C46.3746 14.7609 46.8066 14.1129 47.3506 13.5689C47.9106 13.0249 48.5666 12.5929 49.3186 12.2729C50.0866 11.9529 50.9106 11.7929 51.7906 11.7929C52.6706 11.7929 53.4866 11.9529 54.2386 12.2729C55.0066 12.5929 55.6626 13.0249 56.2066 13.5689C56.7666 14.1129 57.1986 14.7609 57.5026 15.5129C57.8226 16.2489 57.9826 17.0329 57.9826 17.8649C57.9826 18.7129 57.8226 19.5049 57.5026 20.2409C57.1986 20.9609 56.7666 21.6009 56.2066 22.1609C55.6626 22.7049 55.0066 23.1369 54.2386 23.4569C53.4866 23.7609 52.6706 23.9129 51.7906 23.9129C50.9106 23.9129 50.0866 23.7609 49.3186 23.4569C48.5666 23.1369 47.9106 22.7049 47.3506 22.1609C46.8066 21.6009 46.3746 20.9609 46.0546 20.2409C45.7506 19.5049 45.5986 18.7129 45.5986 17.8649ZM48.7186 17.8649C48.7186 18.2969 48.7906 18.7049 48.9346 19.0889C49.0946 19.4729 49.3026 19.8089 49.5586 20.0969C49.8306 20.3849 50.1506 20.6169 50.5186 20.7929C50.9026 20.9529 51.3266 21.0329 51.7906 21.0329C52.2386 21.0329 52.6546 20.9529 53.0386 20.7929C53.4226 20.6169 53.7426 20.3849 53.9986 20.0969C54.2706 19.8089 54.4786 19.4729 54.6226 19.0889C54.7826 18.7049 54.8626 18.2969 54.8626 17.8649C54.8626 17.4329 54.7826 17.0249 54.6226 16.6409C54.4786 16.2409 54.2706 15.8969 53.9986 15.6089C53.7426 15.3209 53.4226 15.0969 53.0386 14.9369C52.6546 14.7609 52.2386 14.6729 51.7906 14.6729C51.3266 14.6729 50.9026 14.7609 50.5186 14.9369C50.1506 15.0969 49.8306 15.3209 49.5586 15.6089C49.3026 15.8969 49.0946 16.2409 48.9346 16.6409C48.7906 17.0249 48.7186 17.4329 48.7186 17.8649ZM63.0211 23.6729H59.9011V6.63285H63.0211V23.6729ZM75.8197 21.8249C75.2597 22.4969 74.5477 23.0169 73.6837 23.3849C72.8357 23.7369 71.9557 23.9129 71.0437 23.9129C70.1797 23.9129 69.3717 23.7689 68.6197 23.4809C67.8837 23.1929 67.2437 22.7849 66.6997 22.2569C66.1557 21.7289 65.7237 21.0969 65.4037 20.3609C65.0997 19.6089 64.9477 18.7769 64.9477 17.8649C64.9477 17.0489 65.0757 16.2809 65.3317 15.5609C65.6037 14.8249 65.9877 14.1769 66.4837 13.6169C66.9797 13.0569 67.5717 12.6169 68.2597 12.2969C68.9637 11.9609 69.7477 11.7929 70.6117 11.7929C71.4117 11.7929 72.1477 11.9529 72.8197 12.2729C73.4917 12.5929 74.0677 13.0249 74.5477 13.5689C75.0437 14.0969 75.4277 14.7209 75.6997 15.4409C75.9717 16.1609 76.1077 16.9289 76.1077 17.7449C76.1077 18.0809 76.0837 18.3769 76.0357 18.6329H67.9717C68.0197 19.0489 68.1317 19.4249 68.3077 19.7609C68.4837 20.0969 68.7077 20.3849 68.9797 20.6249C69.2677 20.8649 69.5877 21.0569 69.9397 21.2009C70.3077 21.3289 70.6997 21.3929 71.1157 21.3929C71.7877 21.3929 72.3717 21.2489 72.8677 20.9609C73.3797 20.6569 73.7717 20.3529 74.0437 20.0489L75.8197 21.8249ZM72.9157 16.3529C72.8837 16.0969 72.8037 15.8489 72.6757 15.6089C72.5637 15.3529 72.4037 15.1289 72.1957 14.9369C72.0037 14.7449 71.7717 14.5929 71.4997 14.4809C71.2277 14.3689 70.9317 14.3129 70.6117 14.3129C69.9557 14.3129 69.3957 14.5209 68.9317 14.9369C68.4677 15.3529 68.1957 15.8249 68.1157 16.3529H72.9157ZM85.1114 14.7929C84.9994 14.7609 84.8394 14.7369 84.6314 14.7209C84.4234 14.6889 84.2074 14.6729 83.9834 14.6729C83.6474 14.6729 83.3274 14.7289 83.0234 14.8409C82.7194 14.9529 82.4394 15.0969 82.1834 15.2729C81.9434 15.4329 81.7354 15.6089 81.5594 15.8009C81.3834 15.9929 81.2474 16.1769 81.1514 16.3529V23.6729H78.0314V12.0329H81.0314V13.2089C81.3834 12.7769 81.8554 12.4329 82.4474 12.1769C83.0394 11.9209 83.6954 11.7929 84.4154 11.7929C84.6394 11.7929 84.8234 11.8009 84.9674 11.8169C85.1274 11.8329 85.2954 11.8569 85.4714 11.8889L85.1114 14.7929ZM87.398 20.1209C87.798 20.4889 88.278 20.7769 88.838 20.9849C89.414 21.1769 89.998 21.2729 90.59 21.2729C91.006 21.2729 91.358 21.1849 91.646 21.0089C91.934 20.8169 92.078 20.5769 92.078 20.2889C92.078 20.0009 91.934 19.7689 91.646 19.5929C91.374 19.4009 91.03 19.2329 90.614 19.0889C90.198 18.9289 89.742 18.7689 89.246 18.6089C88.766 18.4329 88.318 18.2169 87.902 17.9609C87.486 17.6889 87.134 17.3529 86.846 16.9529C86.574 16.5529 86.438 16.0409 86.438 15.4169C86.438 14.8569 86.558 14.3529 86.798 13.9049C87.054 13.4569 87.39 13.0809 87.806 12.7769C88.222 12.4569 88.694 12.2169 89.222 12.0569C89.766 11.8809 90.326 11.7929 90.902 11.7929C91.286 11.7929 91.67 11.8249 92.054 11.8889C92.438 11.9529 92.798 12.0409 93.134 12.1529C93.486 12.2649 93.806 12.3929 94.094 12.5369C94.398 12.6809 94.646 12.8249 94.838 12.9689L93.374 15.2249C93.07 15.0009 92.726 14.8169 92.342 14.6729C91.958 14.5129 91.558 14.4329 91.142 14.4329C90.71 14.4329 90.334 14.5129 90.014 14.6729C89.71 14.8329 89.558 15.0649 89.558 15.3689C89.558 15.6249 89.694 15.8329 89.966 15.9929C90.254 16.1369 90.606 16.2809 91.022 16.4249C91.438 16.5689 91.886 16.7289 92.366 16.9049C92.862 17.0649 93.318 17.2889 93.734 17.5769C94.15 17.8649 94.494 18.2249 94.766 18.6569C95.054 19.0889 95.198 19.6409 95.198 20.3129C95.198 20.8729 95.07 21.3769 94.814 21.8249C94.558 22.2569 94.214 22.6329 93.782 22.9529C93.366 23.2569 92.878 23.4969 92.318 23.6729C91.758 23.8329 91.174 23.9129 90.566 23.9129C89.75 23.9129 88.934 23.7849 88.118 23.5289C87.318 23.2569 86.574 22.8649 85.886 22.3529L87.398 20.1209Z" fill="#2D2D62"/>
</svg>
